<svg width="18" height="18" viewBox="0 0 18 18" fill="none" xmlns="http://www.w3.org/2000/svg">
<path d="M16.9017 8.32952H9.66954V1.09738C9.66954 0.727533 9.36974 0.427734 8.99989 0.427734C8.63005 0.427734 8.33025 0.727533 8.33025 1.09738V8.32952H1.09811C0.728266 8.32952 0.428467 8.62932 0.428467 8.99916C0.428467 9.36901 0.728266 9.6688 1.09811 9.6688H8.33025V16.9009C8.33025 17.2708 8.63005 17.5706 8.99989 17.5706C9.36974 17.5706 9.66954 17.2708 9.66954 16.9009V9.6688H16.9017C17.2715 9.6688 17.5713 9.36901 17.5713 8.99916C17.5713 8.62932 17.2715 8.32952 16.9017 8.32952Z" fill="black"/>
</svg>
