<svg width="50" height="50" viewBox="0 0 50 50" fill="none" xmlns="http://www.w3.org/2000/svg">
<path fill-rule="evenodd" clip-rule="evenodd" d="M41.0834 21.2084C40.4376 14.5834 36.5209 4.16669 24.4168 4.16669C12.3126 4.16669 8.39593 14.5834 7.7501 21.2084C5.4845 22.0682 3.99007 24.2434 4.00005 26.6667V29.5834C4.00005 32.805 6.61177 35.4167 9.83343 35.4167C13.0551 35.4167 15.6668 32.805 15.6668 29.5834V26.6667C15.6563 24.2957 14.2168 22.1652 12.0209 21.2709C12.4376 17.4375 14.4793 8.33335 24.4168 8.33335C34.3543 8.33335 36.3751 17.4375 36.7918 21.2709C34.6004 22.1672 33.1681 24.2991 33.1668 26.6667V29.5834C33.1758 31.8229 34.4618 33.861 36.4793 34.8334C35.6043 36.4792 33.3751 38.7084 27.8959 39.375C26.8007 37.7119 24.6817 37.0562 22.8385 37.8102C20.9954 38.5642 19.9434 40.517 20.3278 42.4709C20.7121 44.4248 22.4254 45.8334 24.4168 45.8334C25.9904 45.8246 27.4249 44.9301 28.1251 43.5209C37.0626 42.5 39.9168 37.8959 40.8126 35.1875C43.2362 34.4025 44.8661 32.1307 44.8334 29.5834V26.6667C44.8435 24.2434 43.349 22.0682 41.0834 21.2084ZM11.5001 29.5834C11.5001 30.5038 10.7539 31.25 9.83343 31.25C8.91296 31.25 8.16677 30.5038 8.16677 29.5834V26.6667C8.16677 26.0712 8.48443 25.521 9.0001 25.2233C9.51577 24.9256 10.1511 24.9256 10.6668 25.2233C11.1824 25.521 11.5001 26.0712 11.5001 26.6667V29.5834ZM37.3334 26.6667C37.3334 25.7462 38.0796 25 39.0001 25C39.9206 25 40.6668 25.7462 40.6668 26.6667V29.5834C40.6668 30.5038 39.9206 31.25 39.0001 31.25C38.0796 31.25 37.3334 30.5038 37.3334 29.5834V26.6667Z" fill="#FF977E"/>
</svg>
