<svg width="50" height="50" viewBox="0 0 50 50" fill="none" xmlns="http://www.w3.org/2000/svg">
<path fill-rule="evenodd" clip-rule="evenodd" d="M31.25 4.16669C38.1536 4.16669 43.75 9.76313 43.75 16.6667C43.75 23.4133 38.4051 28.9116 31.7186 29.1581L31.25 29.1667H20.8333V33.3334H29.1667C30.3173 33.3334 31.25 34.2661 31.25 35.4167C31.25 36.5673 30.3173 37.5 29.1667 37.5H20.8333V43.75C20.8333 44.9006 19.9006 45.8334 18.75 45.8334C17.5994 45.8334 16.6667 44.9006 16.6667 43.75V37.5H8.33333C7.18274 37.5 6.25 36.5673 6.25 35.4167C6.25 34.2661 7.18274 33.3334 8.33333 33.3334H16.6667V29.1667H8.33333C7.18274 29.1667 6.25 28.2339 6.25 27.0834C6.25 26.0149 7.05425 25.1344 8.09037 25.014L8.33333 25H16.6667V6.25002C16.6667 5.09943 17.5994 4.16669 18.75 4.16669H31.25ZM31.25 8.33335H20.8333V25H31.25C35.8524 25 39.5833 21.2691 39.5833 16.6667C39.5833 12.2038 36.0751 8.56027 31.6659 8.34355L31.25 8.33335Z" fill="#FF977E"/>
</svg>
