<svg width="50" height="50" viewBox="0 0 50 50" fill="none" xmlns="http://www.w3.org/2000/svg">
<path d="M25 1.5625C18.5781 1.36029 12.3385 3.71486 7.65121 8.10921C2.96391 12.5036 0.212089 18.5785 0 25C0.212089 31.4215 2.96391 37.4964 7.65121 41.8908C12.3385 46.2851 18.5781 48.6397 25 48.4375C31.4219 48.6397 37.6615 46.2851 42.3488 41.8908C47.0361 37.4964 49.7879 31.4215 50 25C49.7879 18.5785 47.0361 12.5036 42.3488 8.10921C37.6615 3.71486 31.4219 1.36029 25 1.5625ZM45.9688 22.8125L42.125 21.875C41.3438 21.6563 41.2812 21.5938 41.2188 21.5C40.75 20.875 40.2188 20.0313 39.7188 19.2188C39.7188 18.9375 39.3125 18.5 39.2188 18.25C39.125 18 40.3125 16.375 40.8125 15.625C41.3515 15.0646 41.9733 14.5904 42.6562 14.2188C44.4733 16.755 45.6134 19.7128 45.9688 22.8125ZM25 5.46875L24.7188 6C24.6908 5.8977 24.6908 5.7898 24.7188 5.6875C24.7188 5.875 24.25 6.15625 23.9375 6.46875L23 7.375C22.5724 7.82075 22.3136 8.40156 22.2679 9.01754C22.2223 9.63351 22.3928 10.2461 22.75 10.75H22.375C21.8815 10.7643 21.3976 10.8897 20.9594 11.1169C20.5211 11.3442 20.1398 11.6674 19.8438 12.0625C19.4983 12.5387 19.2629 13.0857 19.1548 13.664C19.0468 14.2423 19.0686 14.8374 19.2188 15.4063V15.625C18.763 15.7062 18.3138 15.8211 17.875 15.9688L17.125 16.2188L15.125 16.875C14.5291 17.0496 13.9858 17.3694 13.544 17.8057C13.1022 18.2421 12.7757 18.7813 12.5938 19.375C12.4484 19.8732 12.4294 20.3998 12.5385 20.9072C12.6477 21.4146 12.8814 21.8868 13.2188 22.2813C14.4704 23.634 15.9254 24.7833 17.5312 25.6875C19.1031 26.7348 20.8838 27.4279 22.75 27.7188H28C28.6322 27.6886 29.2618 27.8189 29.83 28.0975C30.3983 28.3762 30.8868 28.7942 31.25 29.3125C31.42 29.4879 31.5455 29.7013 31.6162 29.9351C31.6869 30.1688 31.7006 30.4161 31.6562 30.6563C31.594 31.0543 31.4329 31.4304 31.1875 31.75C29.6325 33.0219 28.5803 34.8051 28.2188 36.7813C27.8139 38.2501 27.3128 39.6907 26.7188 41.0938C26.3438 42.0625 26 43 25.75 43.75C24.7017 43.8254 23.648 43.7411 22.625 43.5C22.874 41.1782 22.3228 38.8409 21.0625 36.875C20.0115 35.6332 19.4259 34.0642 19.4062 32.4375C19.6082 30.8944 19.2578 29.3296 18.4171 28.0199C17.5764 26.7102 16.2996 25.7401 14.8125 25.2813C11.3139 23.1068 8.24257 20.3108 5.75 17.0313C7.55591 13.4963 10.3172 10.5388 13.7201 8.49483C17.123 6.45089 21.031 5.40248 25 5.46875ZM3.90625 25C3.90565 23.782 4.03133 22.5671 4.28125 21.375C6.84659 24.4455 9.96243 27.0102 13.4688 28.9375C15.3438 29.625 15.625 30.3438 15.625 32.4375C15.6319 35.0496 16.5869 37.5703 18.3125 39.5313C18.7733 40.8868 18.9229 42.3287 18.75 43.75C14.5735 42.6638 10.865 40.2457 8.18638 36.8622C5.50778 33.4787 4.00517 29.3143 3.90625 25ZM29.9062 44C29.9062 43.5313 30.2812 43 30.4688 42.5C31.1791 40.8838 31.754 39.2114 32.1875 37.5C32.4323 36.4401 33.0267 35.4934 33.875 34.8125C34.9686 33.7374 35.6064 32.2827 35.6562 30.75C35.6946 30.0233 35.584 29.2965 35.3315 28.614C35.0789 27.9316 34.6896 27.3079 34.1875 26.7813C33.4359 25.8591 32.4797 25.1248 31.3948 24.6366C30.3099 24.1484 29.1262 23.9197 27.9375 23.9688H22.9688C20.6349 23.3365 18.4899 22.146 16.7188 20.5L18.1875 20L19.0312 19.75C19.4029 19.5799 19.8109 19.5048 20.2188 19.5313L20.5 20C20.7339 20.4386 21.1227 20.7744 21.5906 20.9419C22.0586 21.1095 22.5722 21.0967 23.0312 20.9063C23.4857 20.6942 23.8457 20.3215 24.0419 19.86C24.238 19.3984 24.2565 18.8806 24.0938 18.4063V17.8438C23.75 16.9063 23.3438 15.5938 23.0938 14.7188C23.9043 14.7528 24.7087 14.5639 25.4194 14.1727C26.1302 13.7815 26.7201 13.203 27.125 12.5C27.319 11.9764 27.3691 11.4103 27.2702 10.8607C27.1713 10.3112 26.9269 9.79812 26.5625 9.375C26.9303 9.04496 27.2748 8.68995 27.5938 8.3125C27.8806 7.96927 28.0904 7.56847 28.209 7.13717C28.3276 6.70587 28.3523 6.25414 28.2812 5.8125C32.6492 6.45549 36.7163 8.41817 39.9375 11.4375C38.9918 12.015 38.1559 12.7557 37.4688 13.625C36.7243 14.7129 36.056 15.851 35.4688 17.0313C35.2167 17.7597 35.1532 18.5401 35.2844 19.2997C35.4155 20.0593 35.737 20.7733 36.2188 21.375C36.7812 22.3438 37.4062 23.2813 37.9688 24.0625C38.7441 25.0397 39.8605 25.6873 41.0938 25.875C41.7812 26.0625 44.2188 26.5625 45.9375 26.9063C45.3849 31.0727 43.5417 34.9616 40.6666 38.0273C37.7915 41.0929 34.0287 43.1815 29.9062 44Z" fill="#FF977E"/>
</svg>
