<svg width="75" height="76" viewBox="0 0 75 76" fill="none" xmlns="http://www.w3.org/2000/svg">
<g clip-path="url(#clip0_7_391)">
<path d="M64.2836 53.814L64.2408 53.7872C63.9756 53.6053 63.7495 53.3722 63.5758 53.1015C63.402 52.8309 63.2843 52.5282 63.2294 52.2113C63.1745 51.8944 63.1836 51.5698 63.2561 51.2565C63.3287 50.9431 63.4632 50.6475 63.6518 50.387C67.3174 44.0168 68.5309 36.5275 67.0646 29.3257C65.5982 22.124 61.5528 15.7054 55.6883 11.2757C49.8237 6.84591 42.5436 4.70982 35.2153 5.26862C27.8871 5.82743 21.015 9.04267 15.8899 14.3104C10.7648 19.5781 7.73944 26.5359 7.382 33.8767C7.02455 41.2175 9.35966 48.4363 13.9487 54.177C18.5377 59.9178 25.0649 63.7855 32.3042 65.0536C39.5435 66.3218 46.9967 64.9031 53.2639 61.0641C54.3348 60.4054 55.727 60.6892 56.4606 61.7066L56.4713 61.712C56.6472 61.9558 56.7719 62.2328 56.8378 62.5261C56.9038 62.8195 56.9097 63.1232 56.8551 63.4189C56.8006 63.7145 56.6868 63.9961 56.5205 64.2467C56.3542 64.4972 56.139 64.7114 55.8877 64.8765L55.4379 65.171C48.1619 69.5453 39.5381 71.1094 31.1894 69.5689C22.8407 68.0285 15.3429 63.4897 10.1072 56.8069C4.8714 50.124 2.25876 41.7579 2.76093 33.2832C3.26311 24.8084 6.84548 16.8094 12.8338 10.7916C18.8221 4.77387 26.8035 1.15233 35.2757 0.608607C43.7479 0.0648844 52.1267 2.63648 58.8351 7.8394C65.5435 13.0423 70.119 20.5178 71.7004 28.8588C73.2818 37.1998 71.76 45.8313 67.4214 53.1286C67.2678 53.3877 67.0624 53.6124 66.8181 53.7888C66.5739 53.9651 66.2959 54.0893 66.0016 54.1536C65.7073 54.2179 65.4028 54.2209 65.1073 54.1625C64.8117 54.1041 64.5314 53.9854 64.2836 53.814ZM24.9275 24.6208C25.4522 24.1014 26.7373 23.914 27.3638 24.6208C28.1402 25.44 27.8886 26.7787 27.3638 27.3409L19.2623 35.2122L27.1657 42.6978C27.6904 43.2172 27.7601 44.7005 27.1657 45.2895C26.4482 46.0016 24.981 45.8892 24.4938 45.4019L15.2571 36.1974C15.0063 35.9446 14.8656 35.603 14.8656 35.247C14.8656 34.8909 15.0063 34.5493 15.2571 34.2965L24.9275 24.6261V24.6208ZM50.0726 24.6208L59.743 34.2912C59.9938 34.5439 60.1345 34.8855 60.1345 35.2416C60.1345 35.5977 59.9938 35.9393 59.743 36.192L50.5117 45.4073C50.0244 45.8892 48.6376 46.1944 47.8344 45.4073C47.0794 44.6576 47.315 43.1155 47.8344 42.5961L55.7699 35.2229L47.5774 27.266C47.0526 26.7037 46.8813 25.3169 47.5774 24.6261C48.2574 23.9568 49.5478 24.1068 50.0726 24.6261V24.6208ZM40.1452 22.6931C40.4076 21.997 41.7087 21.558 42.5387 21.8685C43.3312 22.163 43.797 23.2607 43.5828 23.9568L34.8013 48.106C34.5443 48.8021 33.2913 49.0805 32.5899 48.8181C31.8456 48.5611 31.0371 47.533 31.3048 46.8423L40.1398 22.6931H40.1452Z" fill="#FF977E"/>
</g>
<defs>
<clipPath id="clip0_7_391">
<rect width="75" height="75" fill="white" transform="translate(0 0.5)"/>
</clipPath>
</defs>
</svg>
