<svg width="75" height="76" viewBox="0 0 75 76" fill="none" xmlns="http://www.w3.org/2000/svg">
<path d="M48.8487 24.348C47.6112 23.1105 46.9925 22.4917 46.7606 21.7782C46.5566 21.1505 46.5566 20.4745 46.7606 19.8468C46.9925 19.1333 47.6112 18.5145 48.8487 17.277L57.7187 8.40706C55.365 7.34256 52.7519 6.75 50.0006 6.75C39.6453 6.75 31.2506 15.1447 31.2506 25.5C31.2506 27.0345 31.435 28.5259 31.7828 29.9534C32.155 31.482 32.3412 32.2462 32.3084 32.7291C32.2737 33.2347 32.1984 33.5037 31.9653 33.9534C31.7425 34.3831 31.3159 34.8097 30.4626 35.6631L10.9382 55.1875C8.34937 57.7762 8.34937 61.9737 10.9382 64.5625C13.527 67.1512 17.7244 67.1512 20.3132 64.5625L39.8375 45.0381C40.6909 44.1847 41.1175 43.7581 41.5472 43.5356C41.9972 43.3025 42.2659 43.2272 42.7716 43.1925C43.2544 43.1594 44.0187 43.3456 45.5472 43.7178C46.9747 44.0656 48.4662 44.25 50.0006 44.25C60.3559 44.25 68.7506 35.8553 68.7506 25.5C68.7506 22.7487 68.1581 20.1358 67.0937 17.7821L58.2237 26.652C56.9862 27.8895 56.3675 28.5083 55.6537 28.7401C55.0262 28.9441 54.3503 28.9441 53.7225 28.7401C53.0091 28.5083 52.3903 27.8895 51.1528 26.652L48.8487 24.348Z" stroke="#FF977E" stroke-width="4" stroke-linecap="round" stroke-linejoin="round"/>
</svg>
