<svg width="175" height="175" viewBox="0 0 175 175" fill="none" xmlns="http://www.w3.org/2000/svg">
<path fill-rule="evenodd" clip-rule="evenodd" d="M109.375 14.5833C133.537 14.5833 153.125 34.1708 153.125 58.3333C153.125 81.9466 134.418 101.191 111.015 102.053L109.375 102.083H72.9167V116.667H102.083C106.11 116.667 109.375 119.931 109.375 123.958C109.375 127.985 106.11 131.25 102.083 131.25H72.9167V153.125C72.9167 157.152 69.6521 160.417 65.625 160.417C61.5979 160.417 58.3333 157.152 58.3333 153.125V131.25H29.1667C25.1396 131.25 21.875 127.985 21.875 123.958C21.875 119.931 25.1396 116.667 29.1667 116.667H58.3333V102.083H29.1667C25.1396 102.083 21.875 98.8187 21.875 94.7916C21.875 91.0522 24.6899 87.9702 28.3163 87.549L29.1667 87.4999H58.3333V21.8749C58.3333 17.8478 61.5979 14.5833 65.625 14.5833H109.375ZM109.375 29.1666H72.9167V87.4999H109.375C125.483 87.4999 138.542 74.4416 138.542 58.3333C138.542 42.7131 126.263 29.9608 110.831 29.2023L109.375 29.1666Z" fill="#6F7BF0"/>
</svg>
